<svg width="24" height="24" viewBox="0 0 24 24" fill="none" xmlns="http://www.w3.org/2000/svg">
<path d="M17.8902 17.356L12.5328 11.9958L17.8902 6.63552C17.9585 6.56479 17.9963 6.47007 17.9955 6.37174C17.9946 6.27342 17.9552 6.17936 17.8857 6.10983C17.8162 6.04031 17.7222 6.00087 17.6239 6.00001C17.5256 5.99916 17.4309 6.03696 17.3602 6.10527L12.0027 11.4655L6.64449 6.10602C6.57379 6.03771 6.4791 5.99991 6.38081 6.00076C6.28253 6.00162 6.18851 6.04106 6.11901 6.11058C6.0495 6.18011 6.01008 6.27417 6.00923 6.37249C6.00837 6.47082 6.04616 6.56554 6.11444 6.63627L11.4727 11.9958L6.11444 17.3553C6.07864 17.3899 6.05008 17.4312 6.03043 17.477C6.01079 17.5227 6.00045 17.5719 6.00001 17.6217C5.99958 17.6715 6.00907 17.7209 6.02791 17.767C6.04676 17.8131 6.0746 17.855 6.10979 17.8902C6.14499 17.9254 6.18684 17.9532 6.23291 17.9721C6.27898 17.9909 6.32834 18.0004 6.37812 18C6.42789 17.9996 6.47708 17.9892 6.52281 17.9696C6.56855 17.9499 6.60991 17.9213 6.64449 17.8855L12.0027 12.526L17.3602 17.8863C17.4305 17.9566 17.5258 17.9961 17.6252 17.9961C17.7246 17.9961 17.82 17.9566 17.8902 17.8863C17.9605 17.8159 18 17.7206 18 17.6211C18 17.5217 17.9605 17.4263 17.8902 17.356Z" fill="white"/>
</svg>
