<svg width="24" height="24" viewBox="0 0 24 24" fill="none" xmlns="http://www.w3.org/2000/svg">
<path d="M5.70089 11.5L5.34995 11.1379L5 11.5L5.34995 11.8621L5.70089 11.5ZM11.2981 5L5.34995 11.1379L6.05183 11.8621L12 5.72427L11.2981 5ZM5.34995 11.8621L11.2981 18L12 17.2757L6.05183 11.1379L5.34995 11.8621Z" fill="#151789"/>
<path d="M11.7009 11.5L11.35 11.1379L11 11.5L11.35 11.8621L11.7009 11.5ZM17.2981 5L11.35 11.1379L12.0518 11.8621L18 5.72427L17.2981 5ZM11.35 11.8621L17.2981 18L18 17.2757L12.0518 11.1379L11.35 11.8621Z" fill="#151789"/>
</svg>
