<svg width="24" height="24" viewBox="0 0 24 24" fill="none" xmlns="http://www.w3.org/2000/svg">
<path d="M17.2991 11.5L17.65 11.1379L18 11.5L17.65 11.8621L17.2991 11.5ZM11.7019 5L17.65 11.1379L16.9482 11.8621L11 5.72427L11.7019 5ZM17.65 11.8621L11.7019 18L11 17.2757L16.9482 11.1379L17.65 11.8621Z" fill="#151789"/>
<path d="M11.2991 11.5L11.65 11.1379L12 11.5L11.65 11.8621L11.2991 11.5ZM5.70188 5L11.65 11.1379L10.9482 11.8621L5 5.72427L5.70188 5ZM11.65 11.8621L5.70188 18L5 17.2757L10.9482 11.1379L11.65 11.8621Z" fill="#151789"/>
</svg>
